<mxfile host="app.diagrams.net" modified="2022-03-12T14:07:35.197Z" agent="5.0 (X11; Linux x86_64) AppleWebKit/537.36 (KHTML, like Gecko) Chrome/96.0.4664.113 Safari/537.36" etag="2wARA8bX_Xfc9qsUbDmd" version="17.1.2" type="github">
  <diagram id="x707g6Yf8RZFd1TnT3co" name="Closure">
    <mxGraphModel dx="1108" dy="635" grid="1" gridSize="10" guides="1" tooltips="1" connect="1" arrows="1" fold="1" page="1" pageScale="1" pageWidth="1700" pageHeight="1100" math="0" shadow="0">
      <root>
        <mxCell id="0" />
        <mxCell id="1" parent="0" />
        <mxCell id="VP9L092tS3HKr_LZldHY-2" value="Function" style="rounded=0;whiteSpace=wrap;html=1;fontFamily=Comfortaa;fontSource=https%3A%2F%2Ffonts.googleapis.com%2Fcss%3Ffamily%3DComfortaa;fontSize=20;" vertex="1" parent="1">
          <mxGeometry x="210" y="250" width="120" height="60" as="geometry" />
        </mxCell>
        <mxCell id="VP9L092tS3HKr_LZldHY-3" value="Lexical Environment" style="rounded=0;whiteSpace=wrap;html=1;fontFamily=Comfortaa;fontSource=https%3A%2F%2Ffonts.googleapis.com%2Fcss%3Ffamily%3DComfortaa;fontSize=20;" vertex="1" parent="1">
          <mxGeometry x="450" y="250" width="170" height="60" as="geometry" />
        </mxCell>
        <mxCell id="VP9L092tS3HKr_LZldHY-6" style="rounded=0;orthogonalLoop=1;jettySize=auto;html=1;fontFamily=Comfortaa;fontSource=https%3A%2F%2Ffonts.googleapis.com%2Fcss%3Ffamily%3DComfortaa;fontSize=20;" edge="1" parent="1" source="VP9L092tS3HKr_LZldHY-5" target="VP9L092tS3HKr_LZldHY-2">
          <mxGeometry relative="1" as="geometry" />
        </mxCell>
        <mxCell id="VP9L092tS3HKr_LZldHY-8" style="rounded=0;orthogonalLoop=1;jettySize=auto;html=1;fontFamily=Comfortaa;fontSource=https%3A%2F%2Ffonts.googleapis.com%2Fcss%3Ffamily%3DComfortaa;fontSize=20;" edge="1" parent="1" source="VP9L092tS3HKr_LZldHY-5" target="VP9L092tS3HKr_LZldHY-3">
          <mxGeometry relative="1" as="geometry" />
        </mxCell>
        <mxCell id="VP9L092tS3HKr_LZldHY-5" value="Closure" style="rounded=0;whiteSpace=wrap;html=1;fontFamily=Comfortaa;fontSource=https%3A%2F%2Ffonts.googleapis.com%2Fcss%3Ffamily%3DComfortaa;fontSize=20;fontStyle=1" vertex="1" parent="1">
          <mxGeometry x="340" y="120" width="120" height="60" as="geometry" />
        </mxCell>
        <mxCell id="VP9L092tS3HKr_LZldHY-9" value="Closure allows a function to access the variable from an enclosing scope/environment, even after it leave the scope where it was declared" style="text;html=1;strokeColor=none;fillColor=none;align=center;verticalAlign=middle;whiteSpace=wrap;rounded=0;fontFamily=Comfortaa;fontSource=https%3A%2F%2Ffonts.googleapis.com%2Fcss%3Ffamily%3DComfortaa;fontSize=20;" vertex="1" parent="1">
          <mxGeometry x="520" y="135" width="410" height="30" as="geometry" />
        </mxCell>
      </root>
    </mxGraphModel>
  </diagram>
</mxfile>
